<svg width="24" height="24" viewBox="0 0 24 24" fill="none" xmlns="http://www.w3.org/2000/svg">
<path d="M16.8317 7.66016H15.5885C15.3182 7.66016 15.0611 7.79004 14.902 8.01269L10.7352 13.7912L8.84789 11.1723C8.68885 10.9523 8.43438 10.8198 8.16136 10.8198H6.9182C6.74591 10.8198 6.64518 11.0159 6.74591 11.1564L10.0486 15.7367C10.1267 15.8456 10.2295 15.9344 10.3487 15.9956C10.4678 16.0568 10.5999 16.0887 10.7338 16.0887C10.8678 16.0887 10.9998 16.0568 11.119 15.9956C11.2382 15.9344 11.341 15.8456 11.419 15.7367L17.0013 7.99679C17.1047 7.85631 17.004 7.66016 16.8317 7.66016Z" fill="#73B700"/>
<path d="M11.875 0C5.31724 0 0 5.31724 0 11.875C0 18.4328 5.31724 23.75 11.875 23.75C18.4328 23.75 23.75 18.4328 23.75 11.875C23.75 5.31724 18.4328 0 11.875 0ZM11.875 21.7355C6.43052 21.7355 2.01451 17.3195 2.01451 11.875C2.01451 6.43052 6.43052 2.01451 11.875 2.01451C17.3195 2.01451 21.7355 6.43052 21.7355 11.875C21.7355 17.3195 17.3195 21.7355 11.875 21.7355Z" fill="#73B700"/>
</svg>
