<svg width="150" height="150" viewBox="0 0 150 150" fill="none" xmlns="http://www.w3.org/2000/svg">
<path d="M88.7344 81.0938L79.5797 14.0625H78.8953C62.9132 14.0897 47.5917 20.4429 36.2801 31.7334C24.9685 43.024 18.5867 58.3336 18.5297 74.3156V75L88.7344 81.0938Z" fill="#ED6C47"/>
<path d="M80.264 14.0625H79.5796V75L110.1 87.1875L140.625 75V74.3156C140.568 58.3344 134.187 43.0255 122.876 31.7351C111.566 20.4447 96.2453 14.0909 80.264 14.0625Z" fill="#FF8F6B"/>
<path d="M140.625 75V75.6703C140.566 91.6545 134.182 106.966 122.869 118.258C111.557 129.551 96.2343 135.907 80.25 135.938H78.9047C62.9212 135.904 47.6002 129.547 36.288 118.255C24.9758 106.963 18.5916 91.6538 18.5297 75.6703V75H140.625Z" fill="#D35230"/>
<path opacity="0.1" d="M82.6313 44.0108V109.031C82.6229 110.137 82.2884 111.217 81.6698 112.134C81.0511 113.051 80.1758 113.765 79.1532 114.187C78.4855 114.469 77.7684 114.614 77.0438 114.614H32.9391C32.0834 113.632 31.2687 112.616 30.4969 111.567C22.7217 101.217 18.5216 88.6201 18.5297 75.6749V74.3343C18.515 62.6574 21.9333 51.2338 28.3594 41.4843C29.0258 40.4371 29.7391 39.4204 30.4969 38.4374H77.0438C78.5203 38.4472 79.9337 39.0371 80.979 40.0798C82.0244 41.1225 82.6178 42.5344 82.6313 44.0108Z" fill="black"/>
<path opacity="0.2" d="M79.5797 47.0628V112.083C79.5795 112.805 79.4345 113.519 79.1532 114.183C78.7303 115.205 78.0156 116.079 77.0985 116.697C76.1814 117.315 75.1026 117.648 73.9969 117.657H35.7188C34.7532 116.675 33.8266 115.66 32.9391 114.61C32.0834 113.628 31.2687 112.612 30.4969 111.563C22.7217 101.213 18.5216 88.6157 18.5297 75.6706V74.33C18.5159 62.6547 21.9341 51.2329 28.3594 41.4846H73.9922C75.4695 41.4944 76.8836 42.085 77.9291 43.1287C78.9745 44.1724 79.5675 45.5855 79.5797 47.0628Z" fill="black"/>
<path opacity="0.2" d="M79.5797 47.0628V105.989C79.5662 107.466 78.9728 108.878 77.9274 109.92C76.8821 110.963 75.4687 111.553 73.9922 111.563H30.4969C22.7217 101.213 18.5216 88.6158 18.5297 75.6706V74.33C18.5159 62.6547 21.9341 51.2329 28.3594 41.4846H73.9922C75.4695 41.4944 76.8836 42.085 77.9291 43.1287C78.9745 44.1724 79.5675 45.5855 79.5797 47.0628Z" fill="black"/>
<path opacity="0.2" d="M76.5282 47.0628V105.989C76.5147 107.466 75.9212 108.878 74.8759 109.92C73.8305 110.963 72.4171 111.553 70.9407 111.563H30.4969C22.7217 101.213 18.5216 88.6158 18.5297 75.6706V74.33C18.5159 62.6547 21.9341 51.2329 28.3594 41.4846H70.9407C72.4179 41.4944 73.832 42.085 74.8775 43.1287C75.923 44.1724 76.5159 45.5855 76.5282 47.0628Z" fill="black"/>
<path d="M14.9719 41.4847H70.9313C72.4136 41.4834 73.8358 42.0707 74.8852 43.1176C75.9347 44.1644 76.5257 45.5851 76.5281 47.0675V102.933C76.5257 104.415 75.9347 105.836 74.8852 106.883C73.8358 107.93 72.4136 108.517 70.9313 108.516H14.9719C14.2377 108.517 13.5105 108.374 12.8318 108.094C12.1532 107.814 11.5363 107.403 11.0165 106.884C10.4967 106.366 10.0842 105.75 9.80256 105.072C9.5209 104.394 9.37561 103.667 9.375 102.933V47.0675C9.37561 46.3333 9.5209 45.6065 9.80256 44.9285C10.0842 44.2505 10.4967 43.6347 11.0165 43.1162C11.5363 42.5978 12.1532 42.1868 12.8318 41.9068C13.5105 41.6269 14.2377 41.4834 14.9719 41.4847Z" fill="url(#paint0_linear)"/>
<path d="M43.5609 56.381C47.2037 56.136 50.8152 57.1925 53.7515 59.3623C54.9589 60.437 55.9055 61.7728 56.5196 63.268C57.1336 64.7633 57.3989 66.3788 57.2953 67.992C57.3363 70.2643 56.7299 72.5014 55.5469 74.442C54.35 76.3515 52.6259 77.8737 50.5828 78.8248C48.2484 79.9074 45.6977 80.4428 43.125 80.3904H36.0328V93.5154H28.7859V56.381H43.5609ZM36.0281 74.7185H42.2672C44.2453 74.8611 46.2074 74.276 47.7844 73.0732C48.4292 72.4581 48.9313 71.7092 49.2552 70.879C49.5792 70.0489 49.7171 69.1578 49.6594 68.2685C49.6594 64.1779 47.2765 62.131 42.5109 62.1279H36.0281V74.7185Z" fill="white"/>
<defs>
<linearGradient id="paint0_linear" x1="21.0656" y1="37.0972" x2="64.8376" y2="112.903" gradientUnits="userSpaceOnUse">
<stop stop-color="#CA4C28"/>
<stop offset="0.5" stop-color="#C5401E"/>
<stop offset="1" stop-color="#B62F14"/>
</linearGradient>
</defs>
</svg>
