<svg width="12" height="22" viewBox="0 0 12 22" fill="none" xmlns="http://www.w3.org/2000/svg">
<path fill-rule="evenodd" clip-rule="evenodd" d="M0.251763 11.599C0.171957 11.5204 0.10864 11.4271 0.0654387 11.3243C0.0222371 11.2215 1.29847e-07 11.1113 1.31174e-07 11C1.32501e-07 10.8887 0.0222371 10.7785 0.0654387 10.6757C0.10864 10.5729 0.171957 10.4796 0.251763 10.401L10.5352 0.248122C10.6962 0.0892529 10.9144 4.22889e-07 11.142 4.31706e-07C11.3695 4.40524e-07 11.5878 0.0892529 11.7487 0.248122C11.9096 0.406991 12 0.622466 12 0.84714C12 1.07182 11.9096 1.28729 11.7487 1.44616L2.07022 11L11.7487 20.5538C11.9096 20.7127 12 20.9282 12 21.1529C12 21.3775 11.9096 21.593 11.7487 21.7519C11.5878 21.9107 11.3695 22 11.142 22C10.9144 22 10.6961 21.9107 10.5352 21.7519L0.251763 11.599Z" fill="#002B66"/>
</svg>
