<svg width="302" height="325" viewBox="0 0 302 325" fill="none" xmlns="http://www.w3.org/2000/svg">
<rect width="302" height="325" fill="#E5E5E5"/>
<g clip-path="url(#clip0)">
<rect width="1920" height="18084" transform="translate(-1508 -1954)" fill="white"/>
<rect x="-1351" y="-77" width="1447" height="445" fill="#EDF0F4"/>
<g filter="url(#filter0_d)">
<rect x="50" y="35" width="202" height="225" fill="white"/>
</g>
<path d="M95.6805 141.25V195.558H141.54H187.399V182.464V169.369L184.986 167.528L182.572 165.658V178.178V190.73H141.54H100.508V141.25V91.7705H141.54H182.572V122.634V153.5L184.805 155.219C186.041 156.155 187.127 156.938 187.218 156.938C187.308 156.938 187.399 141.189 187.399 121.94V86.942H141.54H95.6805V141.25Z" fill="#73B700"/>
<path d="M189.21 101.425V103.839H193.132H197.054V134.251V164.663L199.076 166.171C200.162 166.986 201.248 167.771 201.49 167.891C201.821 168.103 201.881 162.28 201.881 133.557V99.0112H195.546H189.21V101.425Z" fill="#73B700"/>
<path d="M143.199 101.849C137.406 102.965 133.273 105.168 129.019 109.422C125.85 112.59 124.644 114.34 122.984 118.232C121.597 121.43 121.023 124.537 121.023 128.671C121.023 139.079 126.815 148.253 136.258 152.747C140.18 154.588 142.413 155.132 146.849 155.342C152.823 155.613 157.771 154.256 162.658 151.058C164.046 150.153 165.223 149.398 165.284 149.398C165.344 149.398 173.52 155.644 183.446 163.247C193.372 170.879 202.002 177.457 202.635 177.88C204.083 178.875 204.898 178.875 205.924 177.88C206.769 177.005 206.919 176.16 206.316 175.134C206.135 174.772 197.687 168.134 187.55 160.381C177.443 152.626 169.025 146.2 168.875 146.079C168.754 145.929 169.116 145.174 169.75 144.359C171.409 142.186 173.4 137.842 174.155 134.764C175.091 131.054 175.091 125.894 174.186 122.153C171.802 112.438 164.319 104.835 154.665 102.33C151.557 101.516 146.095 101.276 143.199 101.849ZM152.16 106.676C161.935 108.547 169.297 116.903 170.111 127.072C170.413 131.114 169.235 136.092 167.123 139.683C165.615 142.308 161.12 146.622 158.586 147.95C154.543 150.031 152.793 150.454 147.876 150.454C143.954 150.424 143.26 150.363 141.087 149.61C137.556 148.434 135.083 146.865 132.187 143.968C127.843 139.624 125.82 134.767 125.791 128.581C125.761 124.719 126.365 122.064 127.963 118.775C130.196 114.16 133.606 110.81 138.373 108.488C142.776 106.374 147.362 105.771 152.16 106.676Z" fill="#73B700"/>
<path d="M151.195 127.978V140.046H153.608H156.022V127.978V115.909H153.608H151.195V127.978Z" fill="#73B700"/>
<path d="M139.126 131.598V140.046H141.54H143.954V131.598V123.15H141.54H139.126V131.598Z" fill="#73B700"/>
<path d="M110.162 166.595V169.008H140.333H170.504V166.595V164.181H140.333H110.162V166.595Z" fill="#73B700"/>
<path d="M197.054 189.796V202.799H156.022H114.99V200.386V197.972H112.576H110.162V202.799V207.627H156.022H201.881V194.079V180.533L199.859 178.935C198.713 178.09 197.627 177.245 197.446 177.064C197.144 176.853 197.054 179.417 197.054 189.796Z" fill="#73B700"/>
<path d="M110.162 181.077V183.491H140.333H170.504V181.077V178.663H140.333H110.162V181.077Z" fill="#73B700"/>
</g>
<defs>
<filter id="filter0_d" x="0" y="0" width="302" height="325" filterUnits="userSpaceOnUse" color-interpolation-filters="sRGB">
<feFlood flood-opacity="0" result="BackgroundImageFix"/>
<feColorMatrix in="SourceAlpha" type="matrix" values="0 0 0 0 0 0 0 0 0 0 0 0 0 0 0 0 0 0 127 0"/>
<feOffset dy="15"/>
<feGaussianBlur stdDeviation="25"/>
<feColorMatrix type="matrix" values="0 0 0 0 0 0 0 0 0 0 0 0 0 0 0 0 0 0 0.1 0"/>
<feBlend mode="normal" in2="BackgroundImageFix" result="effect1_dropShadow"/>
<feBlend mode="normal" in="SourceGraphic" in2="effect1_dropShadow" result="shape"/>
</filter>
<clipPath id="clip0">
<rect width="1920" height="18084" fill="white" transform="translate(-1508 -1954)"/>
</clipPath>
</defs>
</svg>
