<svg width="112" height="122" viewBox="0 0 112 122" fill="none" xmlns="http://www.w3.org/2000/svg">
<path d="M0.680542 55.2504V109.558H46.54H92.3994V96.4635V83.3695L89.9857 81.5284L87.5721 79.6579V92.1781V104.73H46.54H5.50785V55.2504V5.7705H46.54H87.5721V36.6345V67.4997L89.8047 69.2188C91.0411 70.1547 92.1272 70.9379 92.2184 70.9379C92.3083 70.9379 92.3994 55.1888 92.3994 35.9399V0.941963H46.54H0.680542V55.2504Z" fill="#73B700"/>
<path d="M94.2097 15.4249V17.8385H98.1319H102.054V48.2506V78.6626L104.076 80.1711C105.162 80.9864 106.248 81.7708 106.49 81.8915C106.821 82.1033 106.881 76.2797 106.881 47.5573V13.0112H100.546H94.2097V15.4249Z" fill="#73B700"/>
<path d="M48.1988 15.8489C42.406 16.9646 38.2732 19.1677 34.0185 23.4223C30.85 26.5896 29.6444 28.3395 27.9844 32.2322C26.5966 35.4303 26.0227 38.5372 26.0227 42.6712C26.0227 53.0795 31.8155 62.2526 41.2583 66.7474C45.1805 68.5884 47.4131 69.1315 51.8488 69.3421C57.8226 69.613 62.7706 68.2559 67.6582 65.0579C69.0461 64.1527 70.2234 63.3979 70.2837 63.3979C70.344 63.3979 78.5197 69.6438 88.4464 77.2468C98.372 84.8794 107.002 91.4566 107.635 91.8802C109.083 92.8752 109.898 92.8752 110.924 91.8802C111.769 91.0046 111.919 90.1599 111.316 89.1341C111.135 88.772 102.687 82.1345 92.5497 74.3812C82.4431 66.6255 74.0249 60.1998 73.8746 60.0791C73.7539 59.9288 74.116 59.174 74.7502 58.3587C76.409 56.1864 78.4002 51.8419 79.1551 48.7645C80.091 45.0541 80.091 39.8943 79.1859 36.1531C76.8018 26.4382 69.3195 18.8352 59.6648 16.3304C56.5567 15.5164 51.0951 15.2763 48.1988 15.8489ZM57.1601 20.6762C66.9354 22.5468 74.297 30.9034 75.111 41.0716C75.4127 45.1144 74.2354 50.092 72.1235 53.6829C70.615 56.3084 66.1201 60.6222 63.5858 61.9497C59.5429 64.0308 57.793 64.4544 52.8758 64.4544C48.9536 64.4237 48.2603 64.3633 46.0868 63.6097C42.5562 62.4336 40.0835 60.8647 37.1871 57.9684C32.8425 53.6238 30.8205 48.7669 30.7909 42.5813C30.7613 38.7195 31.3648 36.0645 32.9632 32.7752C35.1958 28.1597 38.6057 24.8102 43.3727 22.4876C47.7764 20.3745 52.3623 19.7711 57.1601 20.6762Z" fill="#73B700"/>
<path d="M56.1946 41.9776V54.0459H58.6082H61.0219V41.9776V29.9094H58.6082H56.1946V41.9776Z" fill="#73B700"/>
<path d="M44.1264 45.5981V54.0459H46.5401H48.9537V45.5981V37.1503H46.5401H44.1264V45.5981Z" fill="#73B700"/>
<path d="M15.1625 80.5946V83.0083H45.3332H75.5038V80.5946V78.181H45.3332H15.1625V80.5946Z" fill="#73B700"/>
<path d="M102.054 103.796V116.799H61.0219H19.9898V114.386V111.972H17.5761H15.1625V116.799V121.627H61.0219H106.881V108.079V94.5334L104.859 92.935C103.713 92.0902 102.627 91.2455 102.446 91.0644C102.144 90.8526 102.054 93.4165 102.054 103.796Z" fill="#73B700"/>
<path d="M15.1625 95.0771V97.4907H45.3332H75.5038V95.0771V92.6634H45.3332H15.1625V95.0771Z" fill="#73B700"/>
</svg>
