<svg width="27" height="27" viewBox="0 0 27 27" fill="none" xmlns="http://www.w3.org/2000/svg">
<path d="M0 0.866731C0 0.636859 0.091316 0.416403 0.25386 0.253859C0.416403 0.091316 0.636859 0 0.866731 0H3.46692C3.66026 5.34105e-05 3.84802 0.064746 4.00036 0.18379C4.1527 0.302834 4.26086 0.469393 4.30765 0.656982L5.0097 3.46692H25.1352C25.2625 3.46704 25.3881 3.49518 25.5033 3.54935C25.6185 3.60352 25.7203 3.68238 25.8015 3.78034C25.8828 3.8783 25.9414 3.99294 25.9734 4.11613C26.0053 4.23933 26.0097 4.36804 25.9863 4.49313L23.3861 18.3608C23.3489 18.5594 23.2435 18.7388 23.0881 18.868C22.9327 18.9971 22.7371 19.0679 22.535 19.0681H6.93384C6.73178 19.0679 6.53613 18.9971 6.38072 18.868C6.2253 18.7388 6.1199 18.5594 6.08272 18.3608L3.48426 4.51913L2.79087 1.73346H0.866731C0.636859 1.73346 0.416403 1.64215 0.25386 1.4796C0.091316 1.31706 0 1.0966 0 0.866731ZM5.3772 5.20038L7.65323 17.3346H21.8156L24.0916 5.20038H5.3772ZM8.66731 19.0681C7.74782 19.0681 6.866 19.4333 6.21582 20.0835C5.56565 20.7337 5.20038 21.6155 5.20038 22.535C5.20038 23.4545 5.56565 24.3363 6.21582 24.9865C6.866 25.6367 7.74782 26.0019 8.66731 26.0019C9.58679 26.0019 10.4686 25.6367 11.1188 24.9865C11.769 24.3363 12.1342 23.4545 12.1342 22.535C12.1342 21.6155 11.769 20.7337 11.1188 20.0835C10.4686 19.4333 9.58679 19.0681 8.66731 19.0681ZM20.8015 19.0681C19.882 19.0681 19.0002 19.4333 18.35 20.0835C17.6999 20.7337 17.3346 21.6155 17.3346 22.535C17.3346 23.4545 17.6999 24.3363 18.35 24.9865C19.0002 25.6367 19.882 26.0019 20.8015 26.0019C21.721 26.0019 22.6028 25.6367 23.253 24.9865C23.9032 24.3363 24.2685 23.4545 24.2685 22.535C24.2685 21.6155 23.9032 20.7337 23.253 20.0835C22.6028 19.4333 21.721 19.0681 20.8015 19.0681ZM8.66731 20.8015C9.12705 20.8015 9.56796 20.9842 9.89305 21.3093C10.2181 21.6343 10.4008 22.0753 10.4008 22.535C10.4008 22.9947 10.2181 23.4357 9.89305 23.7607C9.56796 24.0858 9.12705 24.2685 8.66731 24.2685C8.20756 24.2685 7.76665 24.0858 7.44156 23.7607C7.11648 23.4357 6.93384 22.9947 6.93384 22.535C6.93384 22.0753 7.11648 21.6343 7.44156 21.3093C7.76665 20.9842 8.20756 20.8015 8.66731 20.8015ZM20.8015 20.8015C21.2613 20.8015 21.7022 20.9842 22.0273 21.3093C22.3524 21.6343 22.535 22.0753 22.535 22.535C22.535 22.9947 22.3524 23.4357 22.0273 23.7607C21.7022 24.0858 21.2613 24.2685 20.8015 24.2685C20.3418 24.2685 19.9009 24.0858 19.5758 23.7607C19.2507 23.4357 19.0681 22.9947 19.0681 22.535C19.0681 22.0753 19.2507 21.6343 19.5758 21.3093C19.9009 20.9842 20.3418 20.8015 20.8015 20.8015Z" fill="#002B66"/>
</svg>
