<svg width="25" height="24" viewBox="0 0 25 24" fill="none" xmlns="http://www.w3.org/2000/svg">
<path d="M0.626038 0.8C0.626038 0.587827 0.708411 0.384344 0.855037 0.234315C1.00166 0.0842854 1.20053 0 1.40789 0H3.75345C3.92785 4.92984e-05 4.09723 0.0597611 4.23465 0.16964C4.37207 0.279518 4.46964 0.433254 4.51184 0.6064L5.14515 3.2H23.2998C23.4146 3.20011 23.5279 3.22608 23.6318 3.27608C23.7357 3.32608 23.8275 3.39887 23.9008 3.48929C23.9741 3.5797 24.0271 3.68552 24.0559 3.79923C24.0847 3.91294 24.0887 4.03174 24.0675 4.1472L21.722 16.9472C21.6884 17.1305 21.5934 17.2961 21.4532 17.4153C21.313 17.5345 21.1365 17.5998 20.9542 17.6H6.88086C6.69858 17.5998 6.52209 17.5345 6.3819 17.4153C6.2417 17.2961 6.14662 17.1305 6.11308 16.9472L3.76908 4.1712L3.1436 1.6H1.40789C1.20053 1.6 1.00166 1.51571 0.855037 1.36569C0.708411 1.21566 0.626038 1.01217 0.626038 0.8ZM5.47665 4.8L7.5298 16H20.3053L22.3584 4.8H5.47665ZM8.44456 17.6C7.61512 17.6 6.81965 17.9371 6.23315 18.5373C5.64665 19.1374 5.31715 19.9513 5.31715 20.8C5.31715 21.6487 5.64665 22.4626 6.23315 23.0627C6.81965 23.6629 7.61512 24 8.44456 24C9.274 24 10.0695 23.6629 10.656 23.0627C11.2425 22.4626 11.572 21.6487 11.572 20.8C11.572 19.9513 11.2425 19.1374 10.656 18.5373C10.0695 17.9371 9.274 17.6 8.44456 17.6ZM19.3905 17.6C18.5611 17.6 17.7656 17.9371 17.1791 18.5373C16.5926 19.1374 16.2631 19.9513 16.2631 20.8C16.2631 21.6487 16.5926 22.4626 17.1791 23.0627C17.7656 23.6629 18.5611 24 19.3905 24C20.2199 24 21.0154 23.6629 21.6019 23.0627C22.1884 22.4626 22.5179 21.6487 22.5179 20.8C22.5179 19.9513 22.1884 19.1374 21.6019 18.5373C21.0154 17.9371 20.2199 17.6 19.3905 17.6ZM8.44456 19.2C8.85928 19.2 9.25702 19.3686 9.55027 19.6686C9.84352 19.9687 10.0083 20.3757 10.0083 20.8C10.0083 21.2243 9.84352 21.6313 9.55027 21.9314C9.25702 22.2314 8.85928 22.4 8.44456 22.4C8.02984 22.4 7.63211 22.2314 7.33886 21.9314C7.04561 21.6313 6.88086 21.2243 6.88086 20.8C6.88086 20.3757 7.04561 19.9687 7.33886 19.6686C7.63211 19.3686 8.02984 19.2 8.44456 19.2ZM19.3905 19.2C19.8052 19.2 20.203 19.3686 20.4962 19.6686C20.7895 19.9687 20.9542 20.3757 20.9542 20.8C20.9542 21.2243 20.7895 21.6313 20.4962 21.9314C20.203 22.2314 19.8052 22.4 19.3905 22.4C18.9758 22.4 18.578 22.2314 18.2848 21.9314C17.9915 21.6313 17.8268 21.2243 17.8268 20.8C17.8268 20.3757 17.9915 19.9687 18.2848 19.6686C18.578 19.3686 18.9758 19.2 19.3905 19.2Z" fill="white"/>
</svg>
