<svg width="41" height="41" viewBox="0 0 41 41" fill="none" xmlns="http://www.w3.org/2000/svg">
<path d="M29.0416 26.0435V37.7831C29.0417 37.9343 29.0016 38.0827 28.9255 38.2133C28.8495 38.3439 28.7401 38.4519 28.6086 38.5264C28.4771 38.6009 28.3282 38.6392 28.1771 38.6374C28.026 38.6356 27.8781 38.5937 27.7484 38.516L20.5 34.1666L13.2515 38.516C13.1218 38.5938 12.9737 38.6357 12.8224 38.6374C12.6711 38.6392 12.5221 38.6007 12.3906 38.526C12.2591 38.4513 12.1497 38.343 12.0738 38.2122C11.9978 38.0813 11.958 37.9327 11.9583 37.7814V26.0452C9.74798 24.2755 8.14188 21.863 7.36197 19.141C6.58206 16.419 6.66685 13.522 7.60461 10.8503C8.54237 8.17866 10.2868 5.86419 12.5969 4.22681C14.9069 2.58942 17.6685 1.70996 20.5 1.70996C23.3315 1.70996 26.0931 2.58942 28.4031 4.22681C30.7131 5.86419 32.4576 8.17866 33.3953 10.8503C34.3331 13.522 34.4179 16.419 33.638 19.141C32.8581 21.863 31.252 24.2755 29.0416 26.0452V26.0435ZM15.375 28.0473V33.2578L20.5 30.1827L25.625 33.2578V28.0473C23.9967 28.7059 22.2564 29.0435 20.5 29.0416C18.7435 29.0435 17.0033 28.7059 15.375 28.0473ZM20.5 25.6249C23.2184 25.6249 25.8256 24.545 27.7478 22.6228C29.6701 20.7005 30.75 18.0934 30.75 15.3749C30.75 12.6564 29.6701 10.0493 27.7478 8.12707C25.8256 6.20482 23.2184 5.12492 20.5 5.12492C17.7815 5.12492 15.1744 6.20482 13.2521 8.12707C11.3299 10.0493 10.25 12.6564 10.25 15.3749C10.25 18.0934 11.3299 20.7005 13.2521 22.6228C15.1744 24.545 17.7815 25.6249 20.5 25.6249Z" fill="#73B700"/>
</svg>
