<svg width="39" height="37" viewBox="0 0 39 37" fill="none" xmlns="http://www.w3.org/2000/svg">
<path d="M23.5811 19.9178L20.8608 0H20.6575C15.9085 0.00806888 11.3558 1.89588 7.99468 5.25079C4.63351 8.6057 2.7372 13.1548 2.72028 17.9038V18.1071L23.5811 19.9178Z" fill="#ED6C47"/>
<path d="M21.0641 0H20.8608V18.1071L29.9297 21.7286L39 18.1071V17.9038C38.983 13.1551 37.0869 8.60615 33.726 5.25128C30.3652 1.89641 25.8129 0.00843659 21.0641 0Z" fill="#FF8F6B"/>
<path d="M39 18.1074V18.3066C38.9824 23.0562 37.0856 27.6057 33.7241 30.9612C30.3626 34.3167 25.8096 36.2054 21.06 36.2146H20.6603C15.9109 36.2047 11.3584 34.3158 7.99702 30.9604C4.63569 27.6051 2.73866 23.056 2.72028 18.3066V18.1074H39Z" fill="#D35230"/>
<path opacity="0.1" d="M21.7676 8.89927V28.2196C21.7651 28.5483 21.6657 28.869 21.4819 29.1415C21.2981 29.414 21.038 29.6263 20.7341 29.7517C20.5357 29.8353 20.3226 29.8784 20.1073 29.8785H7.00193C6.74767 29.5868 6.50557 29.2848 6.27625 28.9731C3.9659 25.8977 2.71787 22.1546 2.72029 18.308V17.9097C2.71591 14.44 3.73163 11.0455 5.64111 8.14852C5.83913 7.83735 6.05106 7.53526 6.27625 7.24316H20.1073C20.546 7.24607 20.966 7.42135 21.2766 7.73119C21.5873 8.04102 21.7636 8.46056 21.7676 8.89927Z" fill="black"/>
<path opacity="0.2" d="M20.8608 9.80594V29.1262C20.8608 29.3406 20.8177 29.5528 20.7341 29.7502C20.6084 30.0538 20.3961 30.3136 20.1236 30.4972C19.8511 30.6808 19.5305 30.78 19.202 30.7824H7.82789C7.54096 30.4908 7.26564 30.189 7.00193 29.877C6.74766 29.5853 6.50556 29.2833 6.27625 28.9716C3.9659 25.8962 2.71787 22.1531 2.72029 18.3065V17.9082C2.71618 14.439 3.73188 11.0451 5.64111 8.14844H19.2006C19.6395 8.15135 20.0597 8.32682 20.3704 8.63696C20.681 8.94709 20.8572 9.36699 20.8608 9.80594Z" fill="black"/>
<path opacity="0.2" d="M20.8608 9.80594V27.3155C20.8568 27.7542 20.6805 28.1738 20.3699 28.4836C20.0593 28.7935 19.6393 28.9687 19.2006 28.9716H6.27625C3.9659 25.8962 2.71787 22.1531 2.72029 18.3065V17.9082C2.71618 14.439 3.73188 11.0451 5.64111 8.14844H19.2006C19.6395 8.15135 20.0597 8.32682 20.3704 8.63696C20.681 8.94709 20.8572 9.36699 20.8608 9.80594Z" fill="black"/>
<path opacity="0.2" d="M19.9541 9.80594V27.3155C19.9501 27.7542 19.7738 28.1738 19.4631 28.4836C19.1525 28.7935 18.7325 28.9687 18.2938 28.9716H6.27625C3.9659 25.8962 2.71787 22.1531 2.72029 18.3065V17.9082C2.71618 14.439 3.73188 11.0451 5.64111 8.14844H18.2938C18.7328 8.15135 19.153 8.32682 19.4636 8.63696C19.7743 8.94709 19.9505 9.36699 19.9541 9.80594Z" fill="black"/>
<path d="M1.66307 8.14844H18.291C18.7315 8.14807 19.154 8.32259 19.4659 8.63366C19.7777 8.94472 19.9533 9.36687 19.9541 9.80733V26.4074C19.9533 26.8479 19.7777 27.27 19.4659 27.5811C19.154 27.8921 18.7315 28.0667 18.291 28.0663H1.66307C1.44492 28.0667 1.22884 28.024 1.02717 27.9409C0.825507 27.8577 0.642212 27.7356 0.487763 27.5815C0.333315 27.4274 0.210741 27.2444 0.127048 27.043C0.0433544 26.8415 0.000182704 26.6256 0 26.4074V9.80733C0.000182704 9.58918 0.0433544 9.37321 0.127048 9.17175C0.210741 8.9703 0.333315 8.78731 0.487763 8.63325C0.642212 8.47919 0.825507 8.35707 1.02717 8.27389C1.22884 8.1907 1.44492 8.14807 1.66307 8.14844Z" fill="url(#paint0_linear)"/>
<path d="M10.1581 12.5748C11.2405 12.502 12.3137 12.8159 13.1862 13.4606C13.5449 13.78 13.8262 14.1769 14.0087 14.6212C14.1911 15.0655 14.27 15.5456 14.2392 16.0249C14.2514 16.7001 14.0712 17.3648 13.7196 17.9415C13.364 18.5089 12.8517 18.9612 12.2446 19.2438C11.551 19.5655 10.793 19.7246 10.0286 19.709H7.92118V23.609H5.76782V12.5748H10.1581ZM7.91979 18.0236H9.77368C10.3615 18.066 10.9445 17.8921 11.4131 17.5347C11.6047 17.352 11.7539 17.1294 11.8501 16.8828C11.9464 16.6361 11.9874 16.3713 11.9702 16.1071C11.9702 14.8916 11.2622 14.2834 9.84611 14.2824H7.91979V18.0236Z" fill="white"/>
<defs>
<linearGradient id="paint0_linear" x1="3.47378" y1="6.84473" x2="16.4803" y2="29.37" gradientUnits="userSpaceOnUse">
<stop stop-color="#CA4C28"/>
<stop offset="0.5" stop-color="#C5401E"/>
<stop offset="1" stop-color="#B62F14"/>
</linearGradient>
</defs>
</svg>
