<svg width="41" height="33" viewBox="0 0 41 33" fill="none" xmlns="http://www.w3.org/2000/svg">
<path d="M7.95837 23.6667C7.95837 23.1915 8.14714 22.7358 8.48314 22.3998C8.81914 22.0638 9.27486 21.875 9.75004 21.875H24.0834C24.5586 21.875 25.0143 22.0638 25.3503 22.3998C25.6863 22.7358 25.875 23.1915 25.875 23.6667C25.875 24.1418 25.6863 24.5976 25.3503 24.9336C25.0143 25.2696 24.5586 25.4583 24.0834 25.4583H9.75004C9.27486 25.4583 8.81914 25.2696 8.48314 24.9336C8.14714 24.5976 7.95837 24.1418 7.95837 23.6667Z" fill="#73B700"/>
<path d="M31.25 14.7084C31.7252 14.7084 32.1809 14.8971 32.5169 15.2331C32.8529 15.5691 33.0417 16.0249 33.0417 16.5C33.0417 16.9752 32.8529 17.4309 32.5169 17.7669C32.1809 18.1029 31.7252 18.2917 31.25 18.2917H16.9167C16.4415 18.2917 15.9858 18.1029 15.6498 17.7669C15.3138 17.4309 15.125 16.9752 15.125 16.5C15.125 16.0249 15.3138 15.5691 15.6498 15.2331C15.9858 14.8971 16.4415 14.7084 16.9167 14.7084H31.25Z" fill="#73B700"/>
<path d="M27.6667 23.6667C27.6667 23.1915 27.8554 22.7358 28.1915 22.3998C28.5275 22.0638 28.9832 21.875 29.4584 21.875H31.25C31.7252 21.875 32.1809 22.0638 32.5169 22.3998C32.8529 22.7358 33.0417 23.1915 33.0417 23.6667C33.0417 24.1418 32.8529 24.5976 32.5169 24.9336C32.1809 25.2696 31.7252 25.4583 31.25 25.4583H29.4584C28.9832 25.4583 28.5275 25.2696 28.1915 24.9336C27.8554 24.5976 27.6667 24.1418 27.6667 23.6667Z" fill="#73B700"/>
<path d="M11.5417 14.7084C12.0169 14.7084 12.4726 14.8971 12.8086 15.2331C13.1446 15.5691 13.3334 16.0249 13.3334 16.5C13.3334 16.9752 13.1446 17.4309 12.8086 17.7669C12.4726 18.1029 12.0169 18.2917 11.5417 18.2917H9.75004C9.27486 18.2917 8.81914 18.1029 8.48314 17.7669C8.14714 17.4309 7.95837 16.9752 7.95837 16.5C7.95837 16.0249 8.14714 15.5691 8.48314 15.2331C8.81914 14.8971 9.27486 14.7084 9.75004 14.7084H11.5417Z" fill="#73B700"/>
<path fill-rule="evenodd" clip-rule="evenodd" d="M6.16669 0.375C4.74115 0.375 3.374 0.941293 2.36599 1.9493C1.35798 2.95731 0.791687 4.32446 0.791687 5.75V27.25C0.791687 28.6755 1.35798 30.0427 2.36599 31.0507C3.374 32.0587 4.74115 32.625 6.16669 32.625H34.8334C36.2589 32.625 37.626 32.0587 38.634 31.0507C39.6421 30.0427 40.2084 28.6755 40.2084 27.25V5.75C40.2084 4.32446 39.6421 2.95731 38.634 1.9493C37.626 0.941293 36.2589 0.375 34.8334 0.375H6.16669ZM34.8334 3.95833H6.16669C5.69151 3.95833 5.23579 4.1471 4.89979 4.4831C4.56378 4.8191 4.37502 5.27482 4.37502 5.75V27.25C4.37502 27.7252 4.56378 28.1809 4.89979 28.5169C5.23579 28.8529 5.69151 29.0417 6.16669 29.0417H34.8334C35.3085 29.0417 35.7642 28.8529 36.1003 28.5169C36.4363 28.1809 36.625 27.7252 36.625 27.25V5.75C36.625 5.27482 36.4363 4.8191 36.1003 4.4831C35.7642 4.1471 35.3085 3.95833 34.8334 3.95833Z" fill="#73B700"/>
</svg>
