<svg width="36" height="41" viewBox="0 0 36 41" fill="none" xmlns="http://www.w3.org/2000/svg">
<path d="M32 0.0200195H6C3.588 0.0200195 0 1.61802 0 6.02002V34.02C0 38.422 3.588 40.02 6 40.02H36V36.02H6.024C5.1 35.996 4 35.63 4 34.02C4 33.818 4.018 33.638 4.048 33.474C4.272 32.324 5.214 32.04 6.022 32.02H34C34.036 32.02 34.062 32.002 34.098 32H36V4.02002C36 1.81402 34.206 0.0200195 32 0.0200195ZM32 28.02H4V6.02002C4 4.40802 5.1 4.04402 6 4.02002H20V18.02L24 16.02L28 18.02V4.02002H32V28.02Z" fill="#73B700"/>
</svg>
