<svg width="36" height="36" viewBox="0 0 36 36" fill="none" xmlns="http://www.w3.org/2000/svg">
<path d="M0 6C0 4.4087 0.632141 2.88258 1.75736 1.75736C2.88258 0.632141 4.4087 0 6 0H30C31.5913 0 33.1174 0.632141 34.2426 1.75736C35.3679 2.88258 36 4.4087 36 6V22C36 23.5913 35.3679 25.1174 34.2426 26.2426C33.1174 27.3679 31.5913 28 30 28H22.828L27.414 32.586C27.7783 32.9632 27.9799 33.4684 27.9753 33.9928C27.9708 34.5172 27.7605 35.0188 27.3896 35.3896C27.0188 35.7605 26.5172 35.9708 25.9928 35.9753C25.4684 35.9799 24.9632 35.7783 24.586 35.414L18 28.828L11.414 35.414C11.0368 35.7783 10.5316 35.9799 10.0072 35.9753C9.48281 35.9708 8.98118 35.7605 8.61036 35.3896C8.23955 35.0188 8.02921 34.5172 8.02465 33.9928C8.02009 33.4684 8.22168 32.9632 8.586 32.586L13.172 28H6C4.4087 28 2.88258 27.3679 1.75736 26.2426C0.632141 25.1174 0 23.5913 0 22V6ZM6 4C5.46957 4 4.96086 4.21071 4.58579 4.58579C4.21071 4.96086 4 5.46957 4 6V22C4 22.5304 4.21071 23.0391 4.58579 23.4142C4.96086 23.7893 5.46957 24 6 24H30C30.5304 24 31.0391 23.7893 31.4142 23.4142C31.7893 23.0391 32 22.5304 32 22V6C32 5.46957 31.7893 4.96086 31.4142 4.58579C31.0391 4.21071 30.5304 4 30 4H6ZM26 8C26.5304 8 27.0391 8.21071 27.4142 8.58579C27.7893 8.96086 28 9.46957 28 10V18C28 18.5304 27.7893 19.0391 27.4142 19.4142C27.0391 19.7893 26.5304 20 26 20C25.4696 20 24.9609 19.7893 24.5858 19.4142C24.2107 19.0391 24 18.5304 24 18V10C24 9.46957 24.2107 8.96086 24.5858 8.58579C24.9609 8.21071 25.4696 8 26 8ZM18 12C18.5304 12 19.0391 12.2107 19.4142 12.5858C19.7893 12.9609 20 13.4696 20 14V18C20 18.5304 19.7893 19.0391 19.4142 19.4142C19.0391 19.7893 18.5304 20 18 20C17.4696 20 16.9609 19.7893 16.5858 19.4142C16.2107 19.0391 16 18.5304 16 18V14C16 13.4696 16.2107 12.9609 16.5858 12.5858C16.9609 12.2107 17.4696 12 18 12ZM8 18C8 17.4696 8.21071 16.9609 8.58579 16.5858C8.96086 16.2107 9.46957 16 10 16H10.02C10.5504 16 11.0591 16.2107 11.4342 16.5858C11.8093 16.9609 12.02 17.4696 12.02 18C12.02 18.5304 11.8093 19.0391 11.4342 19.4142C11.0591 19.7893 10.5504 20 10.02 20H10C9.46957 20 8.96086 19.7893 8.58579 19.4142C8.21071 19.0391 8 18.5304 8 18Z" fill="#73B700"/>
</svg>
