<svg width="26" height="28" viewBox="0 0 26 28" fill="none" xmlns="http://www.w3.org/2000/svg">
<mask id="path-1-outside-1" maskUnits="userSpaceOnUse" x="0" y="16" width="26" height="12" fill="black">
<rect fill="white" y="16" width="26" height="12"/>
<path d="M24.4819 18V23.3333C24.4819 24.0406 24.2187 24.7189 23.7503 25.219C23.2818 25.719 22.6464 26 21.9839 26H4.49799C3.83548 26 3.20011 25.719 2.73164 25.219C2.26318 24.7189 2 24.0406 2 23.3333V18"/>
</mask>
<path d="M25.9819 18C25.9819 17.1716 25.3103 16.5 24.4819 16.5C23.6535 16.5 22.9819 17.1716 22.9819 18H25.9819ZM2 23.3333H0.5H2ZM3.5 18C3.5 17.1716 2.82843 16.5 2 16.5C1.17157 16.5 0.5 17.1716 0.5 18H3.5ZM22.9819 18V23.3333H25.9819V18H22.9819ZM22.9819 23.3333C22.9819 23.6732 22.8545 23.9811 22.6556 24.1935L24.845 26.2444C25.583 25.4566 25.9819 24.4079 25.9819 23.3333H22.9819ZM22.6556 24.1935C22.4597 24.4026 22.2158 24.5 21.9839 24.5V27.5C23.0771 27.5 24.1039 27.0355 24.845 26.2444L22.6556 24.1935ZM21.9839 24.5H4.49799V27.5H21.9839V24.5ZM4.49799 24.5C4.26611 24.5 4.02222 24.4026 3.82636 24.1935L1.63693 26.2444C2.378 27.0355 3.40486 27.5 4.49799 27.5V24.5ZM3.82636 24.1935C3.6274 23.9811 3.5 23.6732 3.5 23.3333H0.5C0.5 24.4079 0.898965 25.4566 1.63693 26.2444L3.82636 24.1935ZM3.5 23.3333V18H0.5V23.3333H3.5Z" fill="#73B700" mask="url(#path-1-outside-1)"/>
<mask id="path-3-outside-2" maskUnits="userSpaceOnUse" x="4.99576" y="9.33301" width="16" height="11" fill="black">
<rect fill="white" x="4.99576" y="9.33301" width="16" height="11"/>
<path d="M6.99576 11.333L13.2407 17.9997L19.4857 11.333"/>
</mask>
<path d="M8.09048 10.3075C7.52412 9.70294 6.57488 9.67194 5.97029 10.2383C5.36569 10.8046 5.33469 11.7539 5.90104 12.3585L8.09048 10.3075ZM13.2407 17.9997L12.146 19.0251C12.4296 19.3279 12.8259 19.4997 13.2407 19.4997C13.6556 19.4997 14.0519 19.3279 14.3355 19.0251L13.2407 17.9997ZM20.5804 12.3585C21.1468 11.7539 21.1158 10.8046 20.5112 10.2383C19.9066 9.67194 18.9574 9.70294 18.391 10.3075L20.5804 12.3585ZM5.90104 12.3585L12.146 19.0251L14.3355 16.9742L8.09048 10.3075L5.90104 12.3585ZM14.3355 19.0251L20.5804 12.3585L18.391 10.3075L12.146 16.9742L14.3355 19.0251Z" fill="#73B700" mask="url(#path-3-outside-2)"/>
<path d="M12.491 18C12.491 18.4142 12.8268 18.75 13.241 18.75C13.6552 18.75 13.991 18.4142 13.991 18V2C13.991 1.58579 13.6552 1.25 13.241 1.25C12.8268 1.25 12.491 1.58579 12.491 2V18Z" stroke="#73B700" stroke-width="1.5" stroke-linecap="round" stroke-linejoin="round"/>
</svg>
