<svg width="35" height="36" viewBox="0 0 35 36" fill="none" xmlns="http://www.w3.org/2000/svg">
<path d="M8.21406 29.25C7.68216 29.2509 7.15251 29.179 6.63906 29.0362C5.09786 28.5841 3.79031 27.5288 2.99694 26.0965C2.20357 24.6642 1.98758 22.9691 2.3953 21.375L4.94374 11.43C5.14221 10.6251 5.49504 9.86915 5.98151 9.2065C6.46798 8.54385 7.07827 7.98787 7.77656 7.5712C8.45646 7.16615 9.20775 6.90388 9.9869 6.7996C10.7661 6.69532 11.5576 6.7511 12.3156 6.9637C13.1214 7.19387 13.872 7.59371 14.5196 8.13789C15.1673 8.68208 15.698 9.35873 16.0781 10.125H18.9219C19.3003 9.3575 19.8305 8.67985 20.4784 8.13546C21.1263 7.59108 21.8777 7.19196 22.6844 6.9637C23.4424 6.7511 24.2339 6.69532 25.0131 6.7996C25.7922 6.90388 26.5435 7.16615 27.2234 7.5712C27.9183 7.9868 28.5264 8.53974 29.0126 9.19814C29.4988 9.85655 29.8535 10.6074 30.0562 11.4075L32.6047 21.375C33.0185 22.9738 32.8042 24.6759 32.0081 26.1136C31.212 27.5513 29.898 28.6092 28.35 29.0587C27.5919 29.2713 26.8004 29.3271 26.0213 29.2228C25.2421 29.1185 24.4908 28.8563 23.8109 28.4512C23.1149 28.0371 22.506 27.4846 22.0196 26.826C21.5333 26.1673 21.1792 25.4157 20.9781 24.615L20.7812 23.625H14.2187L13.9672 24.5925C13.7661 25.3932 13.412 26.1448 12.9257 26.8035C12.4393 27.4621 11.8304 28.0146 11.1344 28.4287C10.2457 28.9559 9.23992 29.2388 8.21406 29.25ZM10.7516 8.99995C10.0915 9.00226 9.44334 9.18056 8.8703 9.51745C7.97218 10.0595 7.31935 10.9453 7.05468 11.9812L4.50624 21.9262C4.23957 22.9508 4.37432 24.0421 4.88153 24.9656C5.38873 25.8891 6.22792 26.571 7.21874 26.865C7.69726 26.9992 8.19692 27.0345 8.6888 26.9689C9.18068 26.9032 9.65501 26.7379 10.0844 26.4825C10.5314 26.217 10.9223 25.8623 11.2341 25.4392C11.5459 25.0161 11.7723 24.5331 11.9 24.0187L12.5781 21.375H22.4219L23.0891 24.0187C23.219 24.5321 23.4463 25.0141 23.7579 25.4369C24.0695 25.8597 24.4592 26.215 24.9047 26.4825C25.3361 26.7376 25.8123 26.9028 26.3059 26.9684C26.7995 27.0341 27.3009 26.9989 27.7812 26.865C28.7733 26.5738 29.6135 25.8917 30.1193 24.967C30.6252 24.0422 30.7558 22.9495 30.4828 21.9262L27.9344 11.9812C27.8074 11.468 27.5824 10.9858 27.2726 10.5629C26.9628 10.1399 26.5743 9.78454 26.1297 9.51745C25.6982 9.26227 25.222 9.09713 24.7284 9.03149C24.2348 8.96586 23.7335 9.00101 23.2531 9.13495C22.659 9.30914 22.114 9.6266 21.6631 10.061C21.2123 10.4953 20.8687 11.0341 20.6609 11.6325L20.3984 12.375H14.6016L14.3391 11.6325C14.1294 11.0333 13.7839 10.4942 13.3312 10.0598C12.8785 9.62546 12.3316 9.30841 11.7359 9.13495C11.4149 9.04593 11.084 9.00054 10.7516 8.99995Z" fill="#73B700"/>
<path d="M10.9375 18C10.5049 18 10.0819 17.868 9.72219 17.6208C9.36246 17.3736 9.08208 17.0222 8.91651 16.611C8.75095 16.1999 8.70763 15.7475 8.79203 15.311C8.87644 14.8746 9.08478 14.4737 9.39071 14.159C9.69663 13.8443 10.0864 13.6301 10.5107 13.5432C10.9351 13.4564 11.3749 13.501 11.7746 13.6713C12.1743 13.8416 12.516 14.13 12.7563 14.5C12.9967 14.87 13.125 15.305 13.125 15.75C13.125 16.3467 12.8945 16.919 12.4843 17.341C12.0741 17.7629 11.5177 18 10.9375 18Z" fill="#73B700"/>
<path d="M24.0625 14.625C24.6666 14.625 25.1562 14.1213 25.1562 13.5C25.1562 12.8787 24.6666 12.375 24.0625 12.375C23.4584 12.375 22.9688 12.8787 22.9688 13.5C22.9688 14.1213 23.4584 14.625 24.0625 14.625Z" fill="#73B700"/>
<path d="M24.0625 19.125C24.6666 19.125 25.1562 18.6213 25.1562 18C25.1562 17.3787 24.6666 16.875 24.0625 16.875C23.4584 16.875 22.9688 17.3787 22.9688 18C22.9688 18.6213 23.4584 19.125 24.0625 19.125Z" fill="#73B700"/>
<path d="M21.875 16.875C22.4791 16.875 22.9688 16.3713 22.9688 15.75C22.9688 15.1287 22.4791 14.625 21.875 14.625C21.2709 14.625 20.7812 15.1287 20.7812 15.75C20.7812 16.3713 21.2709 16.875 21.875 16.875Z" fill="#73B700"/>
<path d="M26.25 16.875C26.8541 16.875 27.3438 16.3713 27.3438 15.75C27.3438 15.1287 26.8541 14.625 26.25 14.625C25.6459 14.625 25.1562 15.1287 25.1562 15.75C25.1562 16.3713 25.6459 16.875 26.25 16.875Z" fill="#73B700"/>
</svg>
