<svg width="24" height="25" viewBox="0 0 24 25" fill="none" xmlns="http://www.w3.org/2000/svg">
<path d="M3.78581 0C2.78175 0 1.81882 0.414589 1.10884 1.15256C0.398861 1.89054 0 2.89144 0 3.9351V18.1014C0 19.1451 0.398861 20.146 1.10884 20.884C1.81882 21.6219 2.78175 22.0365 3.78581 22.0365H9.99455C9.74691 21.5334 9.54757 21.0062 9.39942 20.4625H3.78581C3.18338 20.4625 2.60562 20.2137 2.17963 19.771C1.75364 19.3282 1.51433 18.7276 1.51433 18.1014V6.29615H19.6862V9.77005C20.2147 9.92589 20.7205 10.1321 21.2006 10.3887V3.9351C21.2006 2.89144 20.8017 1.89054 20.0917 1.15256C19.3817 0.414589 18.4188 0 17.4147 0H3.78581ZM1.51433 3.9351C1.51433 3.3089 1.75364 2.70836 2.17963 2.26558C2.60562 1.82279 3.18338 1.57404 3.78581 1.57404H17.4147C18.0172 1.57404 18.5949 1.82279 19.0209 2.26558C19.4469 2.70836 19.6862 3.3089 19.6862 3.9351V4.72211H1.51433V3.9351ZM9.08595 8.65721V18.1014C9.08595 18.3102 9.00618 18.5104 8.86419 18.6579C8.72219 18.8055 8.5296 18.8885 8.32879 18.8885H3.78581C3.585 18.8885 3.39242 18.8055 3.25042 18.6579C3.10842 18.5104 3.02865 18.3102 3.02865 18.1014V8.65721C3.02865 8.44848 3.10842 8.2483 3.25042 8.1007C3.39242 7.95311 3.585 7.87019 3.78581 7.87019H8.32879C8.5296 7.87019 8.72219 7.95311 8.86419 8.1007C9.00618 8.2483 9.08595 8.44848 9.08595 8.65721ZM4.54298 9.44423V17.3144H7.57163V9.44423H4.54298ZM10.5973 8.65721C10.5973 8.44848 10.677 8.2483 10.819 8.1007C10.961 7.95311 11.1536 7.87019 11.3544 7.87019H17.4147C17.6156 7.87019 17.8081 7.95311 17.9501 8.1007C18.0921 8.2483 18.1719 8.44848 18.1719 8.65721C18.1719 8.86594 18.0921 9.06612 17.9501 9.21372C17.8081 9.36131 17.6156 9.44423 17.4147 9.44423H11.3544C11.1536 9.44423 10.961 9.36131 10.819 9.21372C10.677 9.06612 10.5973 8.86594 10.5973 8.65721ZM13.7289 13.288C13.8379 13.692 13.8682 14.1145 13.8179 14.5308C13.7676 14.9471 13.6378 15.3487 13.4361 15.7121C13.2343 16.0755 12.9647 16.3933 12.6431 16.6468C12.3215 16.9004 11.9544 17.0845 11.5634 17.1885L10.8638 17.3742C10.8132 17.9063 10.8183 18.4425 10.8789 18.9735L11.4089 19.1041C11.8104 19.2028 12.1883 19.3857 12.5193 19.6416C12.8504 19.8975 13.1276 20.221 13.3341 20.5923C13.5406 20.9636 13.6719 21.3748 13.72 21.8007C13.7681 22.2266 13.7319 22.6582 13.6138 23.0691L13.4215 23.7333C13.8122 24.0545 14.2347 24.3283 14.6859 24.5487L15.1781 24.0072C15.4614 23.6954 15.8031 23.447 16.1821 23.2774C16.5611 23.1077 16.9694 23.0204 17.3821 23.0206C17.7947 23.0209 18.203 23.1089 18.5818 23.2791C18.9605 23.4493 19.3019 23.6981 19.5848 24.0104L20.0951 24.5739C20.5373 24.3614 20.9552 24.0985 21.3399 23.79L21.1036 22.9149C20.9944 22.5108 20.9639 22.0881 21.0141 21.6716C21.0642 21.2552 21.194 20.8534 21.3958 20.4898C21.5976 20.1262 21.8672 19.8083 22.1889 19.5546C22.5107 19.301 22.8779 19.1168 23.2691 19.0128L23.9657 18.8286C24.016 18.296 24.011 17.7593 23.9506 17.2278L23.4236 17.0988C23.0219 17.0001 22.6439 16.8172 22.3127 16.5611C21.9816 16.3051 21.7042 15.9815 21.4977 15.61C21.2913 15.2385 21.16 14.8271 21.112 14.4011C21.0641 13.975 21.1004 13.5432 21.2187 13.1322L21.4095 12.4695C21.0193 12.1481 20.5951 11.874 20.1451 11.6526L19.6529 12.1941C19.3697 12.506 19.0281 12.7545 18.6492 12.9243C18.2702 13.0941 17.8619 13.1816 17.4492 13.1814C17.0366 13.1813 16.6283 13.0935 16.2495 12.9234C15.8707 12.7534 15.5293 12.5046 15.2462 12.1925L14.7359 11.629C14.2943 11.8408 13.8768 12.1032 13.4911 12.4113L13.7289 13.288ZM17.4147 19.6755C17.0131 19.6755 16.6279 19.5096 16.344 19.2145C16.06 18.9193 15.9004 18.5189 15.9004 18.1014C15.9004 17.684 16.06 17.2836 16.344 16.9884C16.6279 16.6932 17.0131 16.5274 17.4147 16.5274C17.8164 16.5274 18.2015 16.6932 18.4855 16.9884C18.7695 17.2836 18.9291 17.684 18.9291 18.1014C18.9291 18.5189 18.7695 18.9193 18.4855 19.2145C18.2015 19.5096 17.8164 19.6755 17.4147 19.6755Z" fill="#73B700"/>
</svg>
