<svg width="24" height="25" viewBox="0 0 24 25" fill="none" xmlns="http://www.w3.org/2000/svg">
<path d="M9.95122 3.04224C10.1841 3.04224 10.4074 3.13839 10.5721 3.30955C10.7368 3.48071 10.8293 3.71285 10.8293 3.95491V13.6901H20.1951C20.4073 13.6901 20.6123 13.77 20.7722 13.9149C20.9321 14.0599 21.0361 14.2601 21.065 14.4786L21.0732 14.6027C21.0732 20.6507 16.3551 24.9464 10.5366 24.9464C7.74211 24.9464 5.06209 23.7925 3.08609 21.7386C1.1101 19.6847 0 16.899 0 13.9943C0 7.94633 4.13268 3.04224 9.95122 3.04224ZM9.07317 4.91261L8.82849 4.94181C4.50849 5.51375 1.7561 9.34941 1.7561 13.9943C1.7561 16.4149 2.68118 18.7363 4.32784 20.4479C5.9745 22.1595 8.20786 23.121 10.5366 23.121C15.0053 23.121 18.6942 20.2589 19.2468 15.7697L19.2726 15.5154H9.95122C9.73904 15.5154 9.53404 15.4355 9.37413 15.2906C9.21422 15.1456 9.11022 14.9454 9.08137 14.7269L9.07317 14.6027V4.91261ZM13.4634 0C16.2579 0 18.9379 1.15387 20.9139 3.20778C22.8899 5.26169 24 8.04739 24 10.9521C24 11.1941 23.9075 11.4263 23.7428 11.5974C23.5782 11.7686 23.3548 11.8647 23.122 11.8647H13.4634C13.2305 11.8647 13.0072 11.7686 12.8425 11.5974C12.6779 11.4263 12.5854 11.1941 12.5854 10.9521V0.912672C12.5854 0.670616 12.6779 0.438474 12.8425 0.267315C13.0072 0.0961562 13.2305 0 13.4634 0ZM14.3415 1.87037V10.0394H22.1994L22.1725 9.78506C21.9236 7.78422 21.0443 5.92537 19.6719 4.49879C18.2994 3.07222 16.5111 2.15823 14.5861 1.89957L14.3415 1.87037Z" fill="#73B700"/>
</svg>
