<svg width="27" height="27" viewBox="0 0 27 27" fill="none" xmlns="http://www.w3.org/2000/svg">
<path d="M4.64111 0L3.28339 1.42752L5.30357 3.55357L6.65936 2.12605L4.64014 0H4.64111ZM22.3599 0L20.3397 2.12605L21.6964 3.55357L23.7156 1.42853L22.3589 0H22.3599ZM13.5 0.63355C13.1818 0.637612 12.8597 0.656902 12.5357 0.69853C12.5261 0.69853 12.5164 0.696499 12.5068 0.69853C8.59564 1.17065 5.48293 4.4978 4.94196 8.5976C4.50996 11.8973 5.80211 14.8894 7.95536 16.8165C8.83614 17.608 9.4319 18.6941 9.64286 19.8929V25.9847H11.8414C12.177 26.5908 12.7893 27 13.5 27C14.2107 27 14.823 26.5908 15.1586 25.9847H17.3571V21.9235H17.4478V20.7173C17.4478 19.2289 18.1826 17.7282 19.3764 16.5617C20.9732 14.8783 22.1786 12.4872 22.1786 9.74083C22.1786 4.72523 18.2578 0.586846 13.5 0.63355ZM13.5 2.66416C17.227 2.60933 20.25 5.82176 20.25 9.74083C20.25 11.8669 19.3146 13.7391 18.0196 15.1016L18.0505 15.1341C16.7635 16.3837 15.9313 18.0671 15.6976 19.8939H11.4798C11.2677 18.1537 10.5589 16.4693 9.21954 15.261C7.51564 13.7381 6.50025 11.4435 6.83968 8.85244C7.26107 5.65423 9.72579 3.08247 12.7459 2.73015C12.9953 2.69355 13.2464 2.67186 13.4981 2.66518L13.5 2.66416ZM0 9.74083V11.7714H2.89286V9.74083H0ZM24.1071 9.74083V11.7714H27V9.74083H24.1071ZM5.30357 17.9587L3.28436 20.0837L4.64111 21.5123L6.65839 19.3862L5.30357 17.9587ZM21.6964 17.9587L20.3406 19.3862L22.3589 21.5123L23.7156 20.0837L21.6964 17.9587ZM11.5714 21.9245H15.4286V23.9551H11.5714V21.9245Z" fill="#73B700"/>
</svg>
