<svg width="27" height="24" viewBox="0 0 27 24" fill="none" xmlns="http://www.w3.org/2000/svg">
<path d="M22.44 4H18.48V2.66667C18.48 1.95942 18.2019 1.28115 17.7068 0.781048C17.2117 0.280951 16.5402 0 15.84 0H10.56C9.85983 0 9.18833 0.280951 8.69324 0.781048C8.19814 1.28115 7.92 1.95942 7.92 2.66667V4H3.96C2.90974 4 1.9025 4.42143 1.15986 5.17157C0.417213 5.92172 0 6.93913 0 8V20C0 21.0609 0.417213 22.0783 1.15986 22.8284C1.9025 23.5786 2.90974 24 3.96 24H22.44C23.4903 24 24.4975 23.5786 25.2401 22.8284C25.9828 22.0783 26.4 21.0609 26.4 20V8C26.4 6.93913 25.9828 5.92172 25.2401 5.17157C24.4975 4.42143 23.4903 4 22.44 4ZM10.56 2.66667H15.84V4H10.56V2.66667ZM23.76 20C23.76 20.3536 23.6209 20.6928 23.3734 20.9428C23.1258 21.1929 22.7901 21.3333 22.44 21.3333H3.96C3.60991 21.3333 3.27417 21.1929 3.02662 20.9428C2.77907 20.6928 2.64 20.3536 2.64 20V13.3333H7.92V14.6667C7.92 15.0203 8.05907 15.3594 8.30662 15.6095C8.55417 15.8595 8.88991 16 9.24 16C9.59009 16 9.92583 15.8595 10.1734 15.6095C10.4209 15.3594 10.56 15.0203 10.56 14.6667V13.3333H15.84V14.6667C15.84 15.0203 15.9791 15.3594 16.2266 15.6095C16.4742 15.8595 16.8099 16 17.16 16C17.5101 16 17.8458 15.8595 18.0934 15.6095C18.3409 15.3594 18.48 15.0203 18.48 14.6667V13.3333H23.76V20ZM23.76 10.6667H2.64V8C2.64 7.64638 2.77907 7.30724 3.02662 7.05719C3.27417 6.80714 3.60991 6.66667 3.96 6.66667H22.44C22.7901 6.66667 23.1258 6.80714 23.3734 7.05719C23.6209 7.30724 23.76 7.64638 23.76 8V10.6667Z" fill="#73B700"/>
</svg>
