<svg width="14" height="7" viewBox="0 0 14 7" fill="none" xmlns="http://www.w3.org/2000/svg">
<path fill-rule="evenodd" clip-rule="evenodd" d="M7.31448 6.33813C7.26865 6.37752 7.21421 6.40878 7.15428 6.4301C7.09434 6.45143 7.03009 6.4624 6.9652 6.4624C6.90031 6.4624 6.83606 6.45143 6.77613 6.4301C6.7162 6.40878 6.66176 6.37752 6.61593 6.33813L0.696053 1.26225C0.60342 1.18282 0.55138 1.0751 0.55138 0.96277C0.55138 0.850443 0.60342 0.742718 0.696053 0.663292C0.788685 0.583866 0.914323 0.539245 1.04533 0.539245C1.17633 0.539245 1.30197 0.583866 1.3946 0.663292L6.9652 5.44055L12.5358 0.663293C12.6284 0.583867 12.7541 0.539246 12.8851 0.539246C13.0161 0.539246 13.1417 0.583867 13.2344 0.663293C13.327 0.742719 13.379 0.850444 13.379 0.96277C13.379 1.0751 13.327 1.18282 13.2344 1.26225L7.31448 6.33813Z" fill="black"/>
</svg>
