<svg width="150" height="150" viewBox="0 0 150 150" fill="none" xmlns="http://www.w3.org/2000/svg">
<path d="M91.786 71.9528L39.9 62.8122V130.354C39.9006 131.088 40.0458 131.815 40.3271 132.492C40.6085 133.17 41.0206 133.786 41.5399 134.304C42.0592 134.822 42.6755 135.233 43.3536 135.514C44.0318 135.794 44.7585 135.938 45.4922 135.937H135.023C135.758 135.939 136.486 135.796 137.165 135.516C137.844 135.237 138.462 134.826 138.982 134.307C139.502 133.789 139.915 133.173 140.197 132.494C140.479 131.816 140.624 131.089 140.625 130.354V105.468L91.786 71.9528Z" fill="#185C37"/>
<path d="M91.786 14.0625H45.4922C44.7585 14.0619 44.0318 14.2058 43.3536 14.486C42.6755 14.7663 42.0592 15.1773 41.5399 15.6957C41.0206 16.2141 40.6085 16.8298 40.3271 17.5074C40.0458 18.1851 39.9006 18.9116 39.9 19.6453V44.5312L91.786 75L119.259 84.1406L140.625 75V44.5312L91.786 14.0625Z" fill="#21A366"/>
<path d="M39.9 44.5312H91.786V75H39.9V44.5312Z" fill="#107C41"/>
<path opacity="0.1" d="M77.0344 38.4374H39.9V114.609H77.0344C78.5141 114.602 79.9313 114.012 80.9789 112.967C82.0265 111.922 82.6202 110.506 82.6313 109.027V44.0202C82.6202 42.5406 82.0265 41.1249 80.9789 40.0799C79.9313 39.0349 78.5141 38.4448 77.0344 38.4374Z" fill="black"/>
<path opacity="0.2" d="M73.9828 41.4846H39.9V117.657H73.9828C75.4625 117.649 76.8797 117.059 77.9273 116.014C78.9749 114.969 79.5686 113.553 79.5797 112.074V47.0675C79.5686 45.5878 78.9749 44.1721 77.9273 43.1271C76.8797 42.0821 75.4625 41.492 73.9828 41.4846Z" fill="black"/>
<path opacity="0.2" d="M73.9828 41.4846H39.9V111.563H73.9828C75.4625 111.555 76.8797 110.965 77.9273 109.92C78.9749 108.875 79.5686 107.46 79.5797 105.98V47.0675C79.5686 45.5878 78.9749 44.1721 77.9273 43.1271C76.8797 42.0821 75.4625 41.492 73.9828 41.4846Z" fill="black"/>
<path opacity="0.2" d="M70.9313 41.4846H39.9V111.563H70.9313C72.4109 111.555 73.8281 110.965 74.8758 109.92C75.9234 108.875 76.5171 107.46 76.5281 105.98V47.0675C76.5171 45.5878 75.9234 44.1721 74.8758 43.1271C73.8281 42.0821 72.4109 41.492 70.9313 41.4846Z" fill="black"/>
<path d="M14.9719 41.4847H70.9313C72.4136 41.4834 73.8358 42.0707 74.8852 43.1176C75.9347 44.1644 76.5257 45.5851 76.5281 47.0675V102.933C76.5257 104.415 75.9347 105.836 74.8852 106.883C73.8358 107.93 72.4136 108.517 70.9313 108.516H14.9719C14.2377 108.517 13.5105 108.374 12.8318 108.094C12.1532 107.814 11.5363 107.403 11.0165 106.884C10.4967 106.366 10.0842 105.75 9.80256 105.072C9.5209 104.394 9.37561 103.667 9.375 102.933V47.0675C9.37561 46.3333 9.5209 45.6065 9.80256 44.9285C10.0842 44.2505 10.4967 43.6347 11.0165 43.1162C11.5363 42.5978 12.1532 42.1868 12.8318 41.9068C13.5105 41.6269 14.2377 41.4834 14.9719 41.4847Z" fill="url(#paint0_linear)"/>
<path d="M26.7188 93.1546L38.4891 74.9483L27.7078 56.8452H36.3656L42.2484 68.4374C42.7922 69.5342 43.1859 70.3499 43.3641 70.8936H43.4437C43.8281 70.0124 44.2359 69.1639 44.6625 68.3342L50.9531 56.8639H58.9219L47.8641 74.8639L59.2031 93.1686H50.7234L43.9266 80.4608C43.611 79.9145 43.3428 79.342 43.125 78.7499H43.0125C42.8143 79.3268 42.5501 79.8789 42.225 80.3952L35.2266 93.1546H26.7188Z" fill="white"/>
<path d="M135.028 14.0625H91.7859V44.5313H140.625V19.6453C140.624 18.9112 140.479 18.1843 140.197 17.5063C139.916 16.8284 139.503 16.2125 138.983 15.6941C138.464 15.1756 137.847 14.7646 137.168 14.4847C136.489 14.2047 135.762 14.0613 135.028 14.0625Z" fill="#33C481"/>
<path d="M91.7859 75H140.625V105.469H91.7859V75Z" fill="#107C41"/>
<defs>
<linearGradient id="paint0_linear" x1="21.0656" y1="37.0972" x2="64.8376" y2="112.903" gradientUnits="userSpaceOnUse">
<stop stop-color="#18884F"/>
<stop offset="0.5" stop-color="#117E43"/>
<stop offset="1" stop-color="#0B6631"/>
</linearGradient>
</defs>
</svg>
