<svg width="12" height="22" viewBox="0 0 12 22" fill="none" xmlns="http://www.w3.org/2000/svg">
<path fill-rule="evenodd" clip-rule="evenodd" d="M11.7482 10.401C11.828 10.4796 11.8914 10.5729 11.9346 10.6757C11.9778 10.7785 12 10.8887 12 11C12 11.1113 11.9778 11.2215 11.9346 11.3243C11.8914 11.4271 11.828 11.5204 11.7482 11.599L1.46476 21.7519C1.30385 21.9107 1.0856 22 0.858038 22C0.630472 22 0.412227 21.9107 0.251314 21.7519C0.0904 21.593 2.9249e-07 21.3775 2.89416e-07 21.1529C2.86342e-07 20.9282 0.0904 20.7127 0.251313 20.5538L9.92978 11L0.251313 1.44616C0.0903998 1.28729 1.46647e-08 1.07182 1.15907e-08 0.84714C8.51663e-09 0.622465 0.0903997 0.406991 0.251313 0.248122C0.412227 0.0892519 0.630472 -1.49384e-07 0.858038 -1.46394e-07C1.0856 -1.43404e-07 1.30385 0.0892519 1.46476 0.248122L11.7482 10.401Z" fill="#002B66"/>
</svg>
