<svg width="150" height="150" viewBox="0 0 150 150" fill="none" xmlns="http://www.w3.org/2000/svg">
<path d="M135.028 14.0625H45.4922C44.7584 14.0619 44.0317 14.2058 43.3536 14.486C42.6754 14.7663 42.0591 15.1773 41.5398 15.6957C41.0206 16.2141 40.6085 16.8298 40.3271 17.5074C40.0457 18.1851 39.9006 18.9116 39.9 19.6453V44.5313L91.7859 59.7656L140.625 44.5313V19.6453C140.624 18.9112 140.479 18.1843 140.197 17.5063C139.916 16.8284 139.503 16.2125 138.983 15.6941C138.464 15.1756 137.847 14.7646 137.168 14.4847C136.489 14.2047 135.762 14.0613 135.028 14.0625Z" fill="#41A5EE"/>
<path d="M140.625 44.5312H39.9V75L91.7859 84.1406L140.625 75V44.5312Z" fill="#2B7CD3"/>
<path d="M39.9 75V105.469L88.7344 111.563L140.625 105.469V75H39.9Z" fill="#185ABD"/>
<path d="M45.4922 135.937H135.023C135.758 135.939 136.486 135.796 137.165 135.517C137.844 135.237 138.462 134.826 138.982 134.308C139.502 133.789 139.915 133.173 140.197 132.495C140.479 131.816 140.624 131.089 140.625 130.355V105.469H39.9V130.355C39.9006 131.088 40.0457 131.815 40.3271 132.493C40.6085 133.17 41.0206 133.786 41.5398 134.304C42.0591 134.823 42.6754 135.234 43.3536 135.514C44.0317 135.794 44.7584 135.938 45.4922 135.937Z" fill="#103F91"/>
<path opacity="0.1" d="M77.0344 38.4374H39.9V114.609H77.0344C78.514 114.602 79.9312 114.012 80.9789 112.967C82.0265 111.922 82.6202 110.506 82.6312 109.027V44.0202C82.6202 42.5406 82.0265 41.1249 80.9789 40.0799C79.9312 39.0349 78.514 38.4448 77.0344 38.4374Z" fill="black"/>
<path opacity="0.2" d="M73.9828 41.4846H39.9V117.657H73.9828C75.4625 117.649 76.8797 117.059 77.9273 116.014C78.9749 114.969 79.5686 113.553 79.5797 112.074V47.0675C79.5686 45.5878 78.9749 44.1721 77.9273 43.1271C76.8797 42.0821 75.4625 41.492 73.9828 41.4846Z" fill="black"/>
<path opacity="0.2" d="M73.9828 41.4846H39.9V111.563H73.9828C75.4625 111.555 76.8797 110.965 77.9273 109.92C78.9749 108.875 79.5686 107.46 79.5797 105.98V47.0675C79.5686 45.5878 78.9749 44.1721 77.9273 43.1271C76.8797 42.0821 75.4625 41.492 73.9828 41.4846Z" fill="black"/>
<path opacity="0.2" d="M70.9312 41.4846H39.9V111.563H70.9312C72.4109 111.555 73.8281 110.965 74.8757 109.92C75.9234 108.875 76.517 107.46 76.5281 105.98V47.0675C76.517 45.5878 75.9234 44.1721 74.8757 43.1271C73.8281 42.0821 72.4109 41.492 70.9312 41.4846Z" fill="black"/>
<path d="M14.9719 41.4847H70.9313C72.4136 41.4834 73.8358 42.0707 74.8852 43.1176C75.9347 44.1644 76.5257 45.5851 76.5281 47.0675V102.933C76.5257 104.415 75.9347 105.836 74.8852 106.883C73.8358 107.93 72.4136 108.517 70.9313 108.516H14.9719C14.2377 108.517 13.5105 108.374 12.8318 108.094C12.1532 107.814 11.5363 107.403 11.0165 106.884C10.4967 106.366 10.0842 105.75 9.80256 105.072C9.5209 104.394 9.37561 103.667 9.375 102.933V47.0675C9.37561 46.3333 9.5209 45.6065 9.80256 44.9285C10.0842 44.2505 10.4967 43.6347 11.0165 43.1162C11.5363 42.5978 12.1532 42.1868 12.8318 41.9068C13.5105 41.6269 14.2377 41.4834 14.9719 41.4847Z" fill="url(#paint0_linear)"/>
<path d="M32.3437 84.3191C32.4516 85.1816 32.5266 85.9316 32.5594 86.5738H32.6906C32.7375 85.9644 32.8406 85.2285 32.9953 84.3707C33.15 83.5129 33.2859 82.7863 33.4125 82.191L39.2953 56.8457H46.9078L53.0016 81.8113C53.3565 83.3556 53.6102 84.9214 53.7609 86.4988H53.8641C53.976 84.9633 54.1874 83.4367 54.4969 81.9285L59.3672 56.8129H66.2906L57.7406 93.1316H49.6453L43.8469 69.1035C43.6781 68.4098 43.4875 67.5067 43.275 66.3942C43.0625 65.2817 42.9312 64.4692 42.8812 63.9567H42.7828C42.7172 64.5473 42.5859 65.4238 42.3891 66.5863C42.1922 67.7535 42.0375 68.6113 41.9203 69.1738L36.4687 93.1457H28.2375L19.6406 56.8457H26.6719L31.9734 82.2426C32.1317 82.9281 32.2553 83.6212 32.3437 84.3191Z" fill="white"/>
<defs>
<linearGradient id="paint0_linear" x1="21.0656" y1="37.0972" x2="64.8376" y2="112.903" gradientUnits="userSpaceOnUse">
<stop stop-color="#2368C4"/>
<stop offset="0.5" stop-color="#1A5DBE"/>
<stop offset="1" stop-color="#1146AC"/>
</linearGradient>
</defs>
</svg>
